<svg xmlns="http://www.w3.org/2000/svg" viewBox="0 0 800 400" fill="none">
  <!-- Process Flow Diagram -->
  <rect width="800" height="400" fill="#0f172a"/>
  
  <!-- Step 1 -->
  <circle cx="100" cy="200" r="40" fill="#4285F4"/>
  <text x="100" y="180" text-anchor="middle" fill="white" font-size="14" font-weight="bold">ANALYSIS</text>
  <text x="100" y="200" text-anchor="middle" fill="white" font-size="12">Understand</text>
  <text x="100" y="215" text-anchor="middle" fill="white" font-size="12">Your Needs</text>
  
  <!-- Arrow 1 -->
  <path d="M150 200 L190 200" stroke="#6366F1" stroke-width="3" marker-end="url(#arrow)"/>
  
  <!-- Step 2 -->
  <circle cx="250" cy="200" r="40" fill="#6366F1"/>
  <text x="250" y="180" text-anchor="middle" fill="white" font-size="14" font-weight="bold">STRATEGY</text>
  <text x="250" y="200" text-anchor="middle" fill="white" font-size="12">Create</text>
  <text x="250" y="215" text-anchor="middle" fill="white" font-size="12">Plan</text>
  
  <!-- Arrow 2 -->
  <path d="M300 200 L340 200" stroke="#6366F1" stroke-width="3"/>
  
  <!-- Step 3 -->
  <circle cx="400" cy="200" r="40" fill="#22D3EE"/>
  <text x="400" y="180" text-anchor="middle" fill="white" font-size="14" font-weight="bold">IMPLEMENT</text>
  <text x="400" y="200" text-anchor="middle" fill="white" font-size="12">Build</text>
  <text x="400" y="215" text-anchor="middle" fill="white" font-size="12">Solution</text>
  
  <!-- Arrow 3 -->
  <path d="M450 200 L490 200" stroke="#6366F1" stroke-width="3"/>
  
  <!-- Step 4 -->
  <circle cx="550" cy="200" r="40" fill="#10B981"/>
  <text x="550" y="180" text-anchor="middle" fill="white" font-size="14" font-weight="bold">OPTIMIZE</text>
  <text x="550" y="200" text-anchor="middle" fill="white" font-size="12">Improve</text>
  <text x="550" y="215" text-anchor="middle" fill="white" font-size="12">Performance</text>
  
  <!-- Arrow 4 -->
  <path d="M600 200 L640 200" stroke="#6366F1" stroke-width="3"/>
  
  <!-- Step 5 -->
  <circle cx="700" cy="200" r="40" fill="#F59E0B"/>
  <text x="700" y="180" text-anchor="middle" fill="white" font-size="14" font-weight="bold">SCALE</text>
  <text x="700" y="200" text-anchor="middle" fill="white" font-size="12">Grow</text>
  <text x="700" y="215" text-anchor="middle" fill="white" font-size="12">Your Business</text>
  
  <!-- Title -->
  <text x="400" y="50" text-anchor="middle" fill="white" font-size="24" font-weight="bold">Our Process</text>
  <text x="400" y="80" text-anchor="middle" fill="#94a3b8" font-size="14">From analysis to scale - we guide you through every step</text>
</svg>
